<?xml version="1.0" standalone="no"?>
<!DOCTYPE svg PUBLIC "-//W3C//DTD SVG 20010904//EN"
 "http://www.w3.org/TR/2001/REC-SVG-20010904/DTD/svg10.dtd">
<svg version="1.0" xmlns="http://www.w3.org/2000/svg"
 width="376.000000pt" height="134.000000pt" viewBox="0 0 376.000000 134.000000"
 preserveAspectRatio="xMidYMid meet">

<g transform="translate(0.000000,134.000000) scale(0.100000,-0.100000)"
fill="#000000" stroke="none">
<path d="M443 1228 c-277 -314 -399 -525 -434 -748 -37 -241 92 -427 326 -471
142 -27 379 15 607 105 151 60 2775 1185 2766 1186 -4 0 -610 -160 -1345 -356
-736 -196 -1371 -362 -1411 -370 -109 -21 -246 -18 -325 6 -84 26 -164 96
-197 172 -53 121 -33 294 55 476 24 50 43 92 42 92 -2 0 -39 -42 -84 -92z"/>
</g>
</svg>
